<mxfile host="app.diagrams.net" modified="2021-05-18T01:49:50.029Z" agent="5.0 (Macintosh; Intel Mac OS X 10_14_3) AppleWebKit/537.36 (KHTML, like Gecko) Chrome/90.0.4430.93 Safari/537.36" etag="XFtrtZDz2gQcjRJGneM1" version="14.6.13" type="github">
  <diagram id="2mGwdzLx8Ha6aLXs8T1y" name="Page-1">
    <mxGraphModel dx="1426" dy="914" grid="1" gridSize="10" guides="1" tooltips="1" connect="1" arrows="1" fold="1" page="1" pageScale="1" pageWidth="827" pageHeight="1169" math="0" shadow="0">
      <root>
        <mxCell id="0" />
        <mxCell id="1" parent="0" />
        <mxCell id="-Br32BE-vh_sqY5txvh9-13" value="" style="rounded=1;whiteSpace=wrap;html=1;fillColor=#6d8764;fontColor=#ffffff;strokeColor=#FFFFFF;" vertex="1" parent="1">
          <mxGeometry x="167" y="190" width="220" height="290" as="geometry" />
        </mxCell>
        <mxCell id="-Br32BE-vh_sqY5txvh9-1" value="实验名称" style="rounded=0;whiteSpace=wrap;html=1;fillColor=#21C0A5;fontColor=#FDFDFD;strokeColor=#FFFFFF;" vertex="1" parent="1">
          <mxGeometry x="180" y="230" width="90" height="30" as="geometry" />
        </mxCell>
        <mxCell id="-Br32BE-vh_sqY5txvh9-2" value="实验时长" style="rounded=0;whiteSpace=wrap;html=1;fillColor=#21C0A5;fontColor=#FDFDFD;strokeColor=#FFFFFF;" vertex="1" parent="1">
          <mxGeometry x="280" y="430" width="90" height="30" as="geometry" />
        </mxCell>
        <mxCell id="-Br32BE-vh_sqY5txvh9-3" value="应用列表" style="rounded=0;whiteSpace=wrap;html=1;fillColor=#21C0A5;fontColor=#FDFDFD;strokeColor=#FFFFFF;" vertex="1" parent="1">
          <mxGeometry x="280" y="230" width="90" height="30" as="geometry" />
        </mxCell>
        <mxCell id="-Br32BE-vh_sqY5txvh9-4" value="实验指标" style="rounded=0;whiteSpace=wrap;html=1;fillColor=#21C0A5;fontColor=#FDFDFD;strokeColor=#FFFFFF;" vertex="1" parent="1">
          <mxGeometry x="180" y="270" width="90" height="30" as="geometry" />
        </mxCell>
        <mxCell id="-Br32BE-vh_sqY5txvh9-5" value="分流变量" style="rounded=0;whiteSpace=wrap;html=1;fillColor=#21C0A5;fontColor=#FDFDFD;strokeColor=#FFFFFF;" vertex="1" parent="1">
          <mxGeometry x="280" y="270" width="90" height="30" as="geometry" />
        </mxCell>
        <mxCell id="-Br32BE-vh_sqY5txvh9-6" value="流量计算" style="rounded=0;whiteSpace=wrap;html=1;fillColor=#21C0A5;fontColor=#FDFDFD;strokeColor=#FFFFFF;" vertex="1" parent="1">
          <mxGeometry x="280" y="390" width="90" height="30" as="geometry" />
        </mxCell>
        <mxCell id="-Br32BE-vh_sqY5txvh9-7" value="流量比例" style="rounded=0;whiteSpace=wrap;html=1;fillColor=#21C0A5;fontColor=#FDFDFD;strokeColor=#FFFFFF;" vertex="1" parent="1">
          <mxGeometry x="280" y="310" width="90" height="30" as="geometry" />
        </mxCell>
        <mxCell id="-Br32BE-vh_sqY5txvh9-8" value="实验分组" style="rounded=0;whiteSpace=wrap;html=1;fillColor=#21C0A5;fontColor=#FDFDFD;strokeColor=#FFFFFF;" vertex="1" parent="1">
          <mxGeometry x="180" y="310" width="90" height="30" as="geometry" />
        </mxCell>
        <mxCell id="-Br32BE-vh_sqY5txvh9-9" value="最小样本" style="rounded=0;whiteSpace=wrap;html=1;fillColor=#21C0A5;fontColor=#FDFDFD;strokeColor=#FFFFFF;" vertex="1" parent="1">
          <mxGeometry x="180" y="430" width="90" height="30" as="geometry" />
        </mxCell>
        <mxCell id="-Br32BE-vh_sqY5txvh9-10" value="历史数据" style="rounded=0;whiteSpace=wrap;html=1;fillColor=#21C0A5;fontColor=#FDFDFD;strokeColor=#FFFFFF;" vertex="1" parent="1">
          <mxGeometry x="180" y="350" width="90" height="30" as="geometry" />
        </mxCell>
        <mxCell id="-Br32BE-vh_sqY5txvh9-11" value="显著水平" style="rounded=0;whiteSpace=wrap;html=1;fillColor=#21C0A5;fontColor=#FDFDFD;strokeColor=#FFFFFF;" vertex="1" parent="1">
          <mxGeometry x="280" y="350" width="90" height="30" as="geometry" />
        </mxCell>
        <mxCell id="-Br32BE-vh_sqY5txvh9-12" value="统计功效" style="rounded=0;whiteSpace=wrap;html=1;fillColor=#21C0A5;fontColor=#FDFDFD;strokeColor=#FFFFFF;" vertex="1" parent="1">
          <mxGeometry x="180" y="390" width="90" height="30" as="geometry" />
        </mxCell>
        <mxCell id="-Br32BE-vh_sqY5txvh9-14" value="配置模块" style="text;html=1;fillColor=#21C0A5;align=center;verticalAlign=middle;whiteSpace=wrap;rounded=0;strokeColor=#FFFFFF;fontColor=#FF0000;" vertex="1" parent="1">
          <mxGeometry x="190" y="200" width="60" height="20" as="geometry" />
        </mxCell>
      </root>
    </mxGraphModel>
  </diagram>
</mxfile>
